<svg onclick="navigateToDashboard()" width="111" class="logo" height="100" viewBox="0 0 111 133" fill="currentColor" xmlns="http://www.w3.org/2000/svg">
                <path d="M85.0935 45.1893C84.7327 45.8924 84.4254 46.6305 84.0012 47.2919C82.9307 48.9669 81.8803 50.6637 80.6828 52.2452C79.462 53.8602 77.7803 54.3044 75.8447 53.6364C74.5387 53.1855 74.168 52.0398 73.8289 50.8758C73.7354 50.5535 73.6335 50.2328 73.4699 49.6984C72.6833 50.5084 72.0904 51.1948 71.419 51.7943C70.0646 53.0068 68.5332 53.8552 66.6544 53.9303C64.7589 54.0055 63.1573 53.4644 62.0383 51.8377C61.9916 51.7709 61.9281 51.7125 61.863 51.6607C61.8212 51.629 61.7628 51.6206 61.5791 51.5522C61.4321 51.8344 61.2333 52.1183 61.1248 52.4323C59.9124 56.0095 58.7584 59.6085 57.4774 63.1607C57.1718 64.0058 56.5522 64.8057 55.8959 65.4403C55.1193 66.1902 54.0522 65.7359 53.83 64.6738C53.5494 63.3377 53.932 62.0852 54.3528 60.841C55.3414 57.9218 56.3385 55.0058 57.3221 52.0849C57.4107 51.8211 57.4256 51.5321 57.4741 51.2532C57.4023 51.2115 57.3305 51.1697 57.2586 51.128C56.938 51.4436 56.609 51.7542 56.2951 52.0766C54.0939 54.3428 51.2598 54.4931 49.2257 52.95C47.5339 51.6657 47.0012 49.7635 47.0496 47.6827C47.0579 47.3553 46.9995 47.0247 46.9727 46.6973C46.8909 46.679 46.8074 46.6589 46.7257 46.6405C46.5085 46.9395 46.273 47.2267 46.0776 47.5407C44.5228 50.0224 42.492 52.0181 39.7932 53.1671C37.3616 54.2026 34.7664 54.3979 32.3348 53.2623C29.9967 52.1684 28.7725 50.0592 28.3166 47.5608C27.4014 42.5406 28.6088 37.9145 31.104 33.5707C32.9343 30.3843 35.3809 27.8007 38.8781 26.488C40.174 26.002 41.6303 25.815 43.0248 25.7549C46.0225 25.6279 47.8846 28.5906 47.4555 31.4447C46.9327 34.9234 45.1675 37.7659 42.8645 40.3227C41.3029 42.0579 39.4659 43.4558 37.3299 44.3626C36.0723 44.897 34.6979 45.206 33.3452 45.4515C32.6103 45.5851 32.3749 45.8406 32.4901 46.5253C32.5953 47.1549 32.6555 47.7945 32.799 48.4141C33.5706 51.7743 36.4965 52.3421 38.873 51.3952C41.2111 50.465 42.8494 48.6363 44.1571 46.5938C45.5115 44.4795 46.6037 42.1982 47.8112 39.9904C50.3045 35.4312 51.4101 30.3542 53.2071 25.5344C54.8839 21.0353 56.4737 16.5044 58.2257 12.0354C59.2293 9.47518 60.5052 7.00517 62.2989 4.90257C63.4145 3.59492 64.8173 2.53443 66.1032 1.37708C66.2603 1.23681 66.4924 1.16166 66.7011 1.09986C69.1661 0.366708 70.2767 1.2819 70.0296 3.85044C69.8092 6.13172 68.8956 8.20094 67.9504 10.2384C65.5839 15.3488 62.7999 20.2286 59.6135 24.8697C55.9042 30.2723 53.3291 36.1443 51.9278 42.5556C51.4085 44.9321 50.8674 47.2802 51.1981 49.7251C51.2682 50.2378 51.4101 50.7689 51.6456 51.2248C52.19 52.2736 53.5144 52.5058 54.4112 51.7125C56.0195 50.2913 57.1067 48.4693 58.0953 46.6055C59.9007 43.2036 61.5324 39.7349 62.8366 36.0841C64.1292 32.4618 65.7142 28.9196 67.8852 25.7048C68.9924 24.0664 70.3469 22.6319 72.0086 21.5313C74.2498 20.0483 77.6517 20.7814 77.9623 24.4205C78.1527 26.6417 77.6817 28.7409 76.9536 30.7968C75.195 35.7652 72.7083 40.311 68.9774 44.0904C67.4193 45.6702 65.6975 47.0063 63.3728 47.2835C63.1156 47.3136 62.7364 47.5941 62.6813 47.8246C62.2237 49.7068 64.5902 52.6878 66.4991 52.5442C67.3441 52.4807 68.2659 52.1851 68.9674 51.7175C71.2821 50.1777 72.6566 47.8313 73.8974 45.4314C75.479 42.3719 76.8952 39.2372 78.0424 35.9789C79.001 33.2568 80.0382 30.5596 81.1371 27.8925C81.4411 27.156 82.0139 26.4696 82.6235 25.9469C82.9642 25.6547 83.7257 25.5378 84.1282 25.7181C84.5407 25.9018 85.01 26.5565 84.9916 26.9874C84.9515 27.9944 84.7528 29.0332 84.4104 29.9834C82.4815 35.3393 80.434 40.6517 78.5552 46.0243C77.9957 47.6259 77.8053 49.3644 77.5465 51.0562C77.4897 51.4236 77.8721 51.8578 78.0508 52.262C78.4016 52.0482 78.8925 51.9179 79.0795 51.6056C80.591 49.0838 82.064 46.5404 83.5069 43.9802C84.4288 42.3452 85.3323 40.6952 86.1506 39.0067C86.6333 38.013 86.8854 36.9092 87.328 35.8921C89.0081 32.0192 91.5499 28.8879 95.3209 26.8738C96.9742 25.9903 98.7695 25.6413 100.637 25.7348C102.985 25.8517 104.718 27.6671 104.887 30.1655C105.026 32.238 104.332 34.1268 103.401 35.9054C101.482 39.5662 98.7545 42.4921 94.9868 44.2641C93.6574 44.8887 92.1461 45.1642 90.6898 45.4565C90.0284 45.5901 89.7846 45.8439 89.8999 46.4285C90.0986 47.4305 90.3023 48.4375 90.6146 49.4078C91.0972 50.9109 92.283 51.5488 93.771 51.7259C95.8953 51.9797 97.5286 50.9793 98.9983 49.6249C101.707 47.1282 103.424 43.9635 104.93 40.6634C105.114 40.2609 105.291 39.8501 105.53 39.481C105.866 38.9633 106.37 38.8397 106.911 39.1236C107.466 39.4159 107.36 39.8585 107.12 40.3361C105.906 42.736 104.857 45.2344 103.466 47.5257C101.751 50.3564 99.4226 52.6678 96.1008 53.5379C93.579 54.1992 91.0072 54.2894 88.7375 52.6561C87.0291 51.4269 86.2023 49.6082 85.7281 47.6192C85.5427 46.8443 85.4559 46.0443 85.3239 45.2561C85.2437 45.2327 85.1619 45.2093 85.0817 45.1843L85.0935 45.1893ZM75.7094 26.336C75.6376 25.6396 75.6459 24.7745 74.7976 24.4138C74.0026 24.0748 73.1943 24.3387 72.69 24.99C71.6779 26.2976 70.6141 27.6019 69.8475 29.0532C67.3157 33.8529 65.5388 38.9683 63.8437 44.1104C63.5648 44.9555 63.7752 45.1876 64.6386 45.0089C66.0648 44.7133 66.9801 43.6812 67.8936 42.6808C70.4654 39.8652 72.2841 36.5668 73.8457 33.1198C74.8109 30.9888 75.6009 28.7927 75.7061 26.336H75.7094ZM101.841 29.6611C101.824 28.5205 101.348 27.9777 100.154 28.1748C99.2839 28.3184 98.377 28.6574 97.6473 29.1501C95.8486 30.3659 94.5994 32.1128 93.4971 33.9598C91.9724 36.5133 90.957 39.2673 90.3224 42.1631C90.0803 43.2704 90.5495 43.7397 91.6351 43.429C92.3933 43.2119 93.1598 42.8879 93.8078 42.442C96.5951 40.5248 98.5173 37.8427 100.112 34.9234C100.989 33.3169 101.739 31.6301 101.841 29.6611ZM44.6414 29.9517C44.5662 29.9233 44.4911 29.8949 44.416 29.8665C44.436 28.5104 43.8598 27.986 42.5087 28.1531C41.3347 28.2967 40.3661 28.8712 39.5076 29.6511C37.7208 31.2727 36.2778 33.1799 35.3276 35.3811C34.3973 37.5354 33.6425 39.7716 32.9127 42.0061C32.5118 43.2353 33.1297 43.8248 34.3489 43.3973C35.249 43.0817 36.1392 42.6257 36.9007 42.0546C39.6179 40.0138 41.5067 37.2766 42.978 34.2621C43.6511 32.8843 44.0936 31.393 44.6397 29.9534L44.6414 29.9517ZM57.0833 26.3544C57.2136 26.4162 57.3439 26.4797 57.4758 26.5415C57.7463 26.1674 58.0637 25.8183 58.2791 25.4142C61.1148 20.1101 63.9706 14.8143 66.7362 9.4735C67.4176 8.15917 67.8502 6.70457 68.286 5.28001C68.5148 4.53181 68.1024 4.17777 67.3842 4.50008C66.8013 4.76061 66.1918 5.17812 65.8394 5.69418C64.8591 7.12875 63.8036 8.565 63.1406 10.1532C61.1983 14.8093 59.423 19.5339 57.611 24.2434C57.3522 24.9148 57.2553 25.6496 57.085 26.3544H57.0833Z" fill="black"/>
                <path d="M75.3837 110.328C74.1813 111.367 72.9922 112.09 71.4006 111.746C69.8291 111.407 69.0826 110.268 68.5198 108.858C67.775 109.637 67.1336 110.303 66.4923 110.971C65.0361 112.491 61.068 111.901 59.7721 110.348C58.5479 108.878 57.7496 107.245 57.6311 105.311C57.6244 105.201 57.6094 105.089 57.5759 104.985C57.5509 104.912 57.4891 104.85 57.3438 104.636C57.0465 105.005 56.7543 105.311 56.5288 105.659C55.1543 107.763 53.648 109.747 51.4936 111.121C50.2811 111.895 48.9468 112.057 47.5773 111.627C46.3248 111.235 45.5081 110.206 45.5932 108.768C45.6818 107.258 45.8471 105.697 46.3314 104.279C47.6875 100.316 49.2607 96.4265 50.6736 92.4835C51.1295 91.2125 51.4184 89.8698 51.6589 88.5371C51.7875 87.8257 51.8176 86.999 50.9625 86.5781C50.044 86.1272 48.8115 86.2675 48.1986 87.0274C47.6692 87.6854 47.2116 88.4369 46.8825 89.2152C45.2827 92.9962 43.7596 96.8106 42.1596 100.593C41.6637 101.766 41.0591 102.896 40.4228 103.998C40.1874 104.408 39.7598 104.757 39.339 104.989C39.1135 105.114 38.6258 105.037 38.4338 104.859C38.2851 104.722 38.3136 104.241 38.4288 103.99C39.2972 102.103 40.2608 100.259 41.0942 98.3586C43.6092 92.6238 45.63 86.7184 47.108 80.6261C47.2266 80.1334 47.584 79.639 47.9631 79.295C48.1719 79.1046 48.7731 79.0646 49.0085 79.2282C51.9178 81.2457 54.3978 83.6655 55.8858 86.9573C56.7359 88.8361 56.1964 90.6681 55.6771 92.4918C54.4378 96.8473 52.1783 100.77 50.4215 104.905C49.9488 106.016 49.6766 107.218 49.3843 108.396C49.2607 108.89 49.3692 109.406 49.9454 109.653C50.5583 109.917 51.1262 109.799 51.5487 109.328C52.2317 108.564 52.9432 107.801 53.4826 106.938C55.0274 104.466 56.5672 101.986 57.9551 99.4259C58.608 98.2218 58.8418 96.7989 59.3829 95.5247C61.1632 91.3261 63.7001 87.7021 67.6046 85.2003C69.3214 84.0998 71.1585 83.4 73.2761 83.7958C74.3767 84.0012 75.043 84.6292 75.4488 85.6229C75.5658 85.9068 75.7261 86.174 75.9465 86.6066C76.3674 85.9302 76.6563 85.4041 77.007 84.9231C77.2659 84.5708 77.5664 84.22 77.9205 83.9712C78.7622 83.3784 80.0932 83.8827 80.17 84.9148C80.2352 85.7966 80.105 86.7652 79.7876 87.5919C77.7351 92.931 75.5757 98.2301 73.5249 103.571C72.9721 105.011 72.6415 106.542 72.2757 108.047C72.1622 108.516 72.2073 109.049 72.289 109.535C72.3993 110.194 72.9571 110.388 73.4514 109.942C73.7971 109.63 74.0944 109.246 74.3482 108.852C76.7983 105.046 79.1413 101.198 80.6644 96.8825C81.9103 93.3535 83.4083 89.9116 84.8379 86.4496C85.3138 85.2955 85.9468 84.2084 87.1476 83.6339C87.839 83.3015 88.5119 83.3198 89.013 83.9879C89.3386 84.4238 89.6275 84.4188 90.0585 84.1182C91.3844 83.193 94.1752 83.2263 95.4544 84.3937C95.8652 84.7678 96.1592 85.309 96.3996 85.8233C96.7471 86.5681 96.9341 86.6349 97.4952 86.0521C98.7811 84.7144 100.298 84.2 102.17 84.4872C104.815 84.8931 105.603 86.847 105.525 89.0632C105.455 91.059 104.808 92.9277 104.087 94.7731C102.646 98.4656 101.181 102.153 99.8349 105.881C99.4976 106.816 99.4725 107.901 99.4826 108.915C99.4927 109.979 100.577 110.473 101.472 109.88C101.832 109.642 102.18 109.313 102.402 108.945C103.783 106.674 105.152 104.393 106.473 102.086C107.146 100.911 107.721 99.6764 108.324 98.459C108.614 97.8728 109.064 97.831 109.58 98.0598C110.092 98.2886 110.129 98.6844 109.915 99.1687C108.473 102.417 107.056 105.68 104.9 108.541C104.352 109.268 103.709 109.926 103.077 110.585C101.846 111.868 100.353 112.19 98.7294 111.535C97.1561 110.901 96.4764 109.49 96.4648 107.938C96.4531 106.295 96.5766 104.576 97.0543 103.018C98.0547 99.7582 99.3723 96.5985 100.466 93.3653C100.972 91.8723 101.273 90.3091 101.635 88.7693C101.722 88.3969 101.779 87.9677 101.68 87.6137C101.548 87.1393 101.343 86.4529 100.999 86.3293C100.538 86.164 99.7982 86.2809 99.384 86.5715C98.1198 87.46 97.4518 88.8478 96.8673 90.2239C96.0206 92.2163 95.3542 94.2871 94.4741 96.2645C93.948 97.4452 93.6875 98.8314 92.4316 99.5929C91.7687 99.9937 91.1056 100.218 90.4126 99.7432C89.7195 99.2689 89.6059 98.509 89.8063 97.7976C90.1587 96.5433 90.628 95.3226 91.0755 94.0968C91.9323 91.7487 92.8943 89.429 92.9443 86.8721C92.956 86.2425 92.9209 85.6279 92.2446 85.309C91.5265 84.9683 90.8501 85.2087 90.4426 85.7515C89.6042 86.8688 88.7458 88.0144 88.1612 89.272C87.2628 91.2059 86.6299 93.2601 85.8065 95.2324C85.1586 96.7839 84.3385 98.2636 83.6922 99.8151C82.4013 102.916 81.1821 106.048 79.9212 109.162C79.5221 110.149 78.9743 111.033 78.0441 111.629C77.2842 112.115 76.1002 111.816 75.7093 111.013C75.6259 110.841 75.5458 110.669 75.3837 110.328ZM61.4087 106.607C61.4805 107.295 61.5089 107.992 61.6325 108.671C61.9698 110.533 63.9121 111.206 65.3651 109.991C66.7829 108.807 67.7683 107.29 68.4814 105.627C69.7473 102.672 70.9564 99.6897 72.0854 96.6803C72.8904 94.5359 73.9992 92.4734 74.1645 90.1254C74.228 89.2151 74.2915 88.2883 74.2046 87.3848C74.016 85.4308 72.5663 84.7427 70.9931 85.9352C69.9728 86.7084 69.0526 87.6687 68.2693 88.6857C66.4105 91.094 65.0762 93.8128 63.9455 96.6285C62.6579 99.835 61.5456 103.088 61.4087 106.605V106.607Z" fill="black"/>
                <path d="M29.1801 111.714C28.5188 112.279 27.8508 112.838 27.1961 113.409C24.22 116.006 20.6929 116.711 16.8735 116.472C10.746 116.088 6.97346 111.243 5.76594 106.131C5.07453 103.203 4.71552 100.234 5.07123 97.2748C5.46198 94.0283 6.04987 90.7866 6.8332 87.6119C7.86018 83.4518 9.57368 79.5205 11.6863 75.7963C14.2315 71.3088 17.3211 67.2523 21.3426 63.9473C24.2718 61.539 27.4432 59.6051 31.1207 58.6064C33.9982 57.8248 36.9124 57.5543 39.855 58.2741C44.8653 59.5015 48.2955 63.8754 48.2188 69.0559C48.1519 73.6102 46.5587 77.5849 43.3355 80.8215C42.0546 82.1091 40.5565 83.1245 38.6209 83.2063C37.1546 83.2697 35.892 82.737 34.7831 81.8502C33.858 81.1104 33.544 80.0198 33.4588 78.8909C33.2768 76.481 35.1088 74.2181 37.4853 73.8306C38.8381 73.6102 39.8818 74.0577 40.6217 75.2134C40.7419 75.4005 40.8505 75.5942 40.9641 75.7863C41.7156 77.0505 42.8278 77.0656 43.6545 75.808C45.0908 73.6252 45.3763 71.1602 45.3713 68.6301C45.368 66.4673 44.8903 64.4416 43.586 62.6697C41.7874 60.2247 39.2656 59.7604 36.4632 60.0678C33.1115 60.4351 30.1972 61.8346 27.5368 63.842C24.15 66.3989 21.4779 69.587 19.2116 73.1559C15.6159 78.8191 13.1994 84.9582 11.6997 91.4764C10.8095 95.3443 10.3903 99.2706 10.6776 103.235C10.853 105.654 11.3974 107.993 12.5915 110.169C15.3187 115.143 21.2791 114.884 24.4205 112.688C27.6888 110.403 29.8782 107.253 31.5783 103.763C32.9495 100.951 34.0467 98.0046 35.2491 95.1105C35.7501 93.9063 36.5234 93.0463 37.8594 92.7958C39.1053 92.562 39.9954 93.2066 39.9269 94.4708C39.8752 95.4278 39.6781 96.4098 39.3608 97.3149C37.4152 102.871 35.4228 108.412 33.4321 113.954C31.6669 118.865 29.8949 123.775 28.0946 128.675C27.7155 129.709 27.3364 130.784 26.7235 131.68C25.7933 133.041 24.5692 132.777 23.9345 131.242C23.37 129.874 23.8243 128.6 24.2385 127.344C25.7148 122.86 27.2379 118.389 28.7442 113.915C28.9697 113.244 29.2051 112.576 29.4356 111.906C29.3488 111.843 29.262 111.778 29.1751 111.714L29.1801 111.714Z" fill="black"/>
                <path d="M17.4278 17.7118C17.4545 20.6244 18.0608 23.8326 19.1079 26.9656C20.4456 30.9671 21.9437 34.9251 23.0643 38.9867C24.564 44.4193 24.5322 49.8804 22.2443 55.1544C20.5892 58.9688 17.6382 61.18 13.545 61.7979C11.0649 62.172 8.59826 62.0401 6.26519 61.0197C2.63281 59.4315 0.707268 56.5105 0.186211 52.6828C-0.189582 49.9322 -0.0559763 47.1716 1.13982 44.5847C2.38567 41.8892 4.48992 40.3444 7.47759 40.1473C10.7726 39.9302 13.094 42.9631 12.2557 46.2247C11.4808 49.2425 8.53143 50.1126 6.32867 49.2909C5.34002 48.9218 4.9475 49.0454 4.88238 50.0608C4.79888 51.34 4.86401 52.6744 5.1513 53.9203C5.65899 56.1214 6.80962 57.9685 8.8504 59.1208C9.15936 59.2962 9.50341 59.4498 9.84911 59.5149C14.6355 60.4101 18.7338 58.2273 19.6874 53.0251C20.3137 49.6099 19.7976 46.2731 19.153 42.9313C18.2779 38.3955 16.379 34.2136 14.7691 29.9266C13.0473 25.3423 12.2156 20.5793 12.7149 15.6827C13.1708 11.222 14.4701 7.03686 17.9589 3.93725C21.9036 0.433468 26.5163 -0.880863 31.6433 0.600475C35.2439 1.64093 37.592 4.08087 38.5005 7.83848C39.3506 11.359 38.6826 14.6974 37.4117 17.9507C36.2293 20.9768 34.5425 23.7107 32.0491 25.8567C30.9703 26.7852 29.8346 27.7054 28.2364 27.1009C26.9622 26.6199 25.9468 25.845 25.4892 24.509C25.1718 23.5821 25.6211 22.7821 26.5763 22.7838C30.491 22.7921 32.156 20.1484 33.3585 17.0371C34.3638 14.4335 34.616 11.7013 34.3738 8.91233C33.8896 3.30264 29.6593 1.98327 25.4658 3.36776C22.5599 4.32803 20.7662 6.49577 19.3049 9.03592C17.827 11.6045 17.4762 14.4202 17.4261 17.7102L17.4278 17.7118Z" fill="black"/>
                <path d="M84.4588 61.4606C85.1769 61.4339 85.7281 61.7461 86.0219 62.3624C86.2908 62.9269 86.6867 62.9502 87.186 62.86C87.9509 62.7231 88.7141 62.5795 89.4824 62.4643C90.8952 62.2505 91.9841 62.9469 92.258 64.3331C92.7372 66.7563 93.1531 69.1929 93.5941 71.6229C93.7326 72.3877 93.8929 73.1492 93.9915 73.9175C94.1835 75.3971 93.5256 76.3475 92.0543 76.623C88.9997 77.1924 85.9351 77.7068 82.8773 78.2613C80.778 78.6421 78.6855 79.0512 76.5895 79.4504C75.023 79.7493 73.9424 79.1114 73.6402 77.5566C73.0273 74.3968 72.4544 71.2304 71.9217 68.0556C71.6762 66.5976 72.3626 65.6724 73.8122 65.3384C74.5938 65.1581 75.3854 65.0027 76.1787 64.8875C76.663 64.8174 76.9068 64.6136 77.0003 64.121C77.1807 63.1673 77.7502 62.6914 78.7271 62.516C80.2569 62.2405 81.7817 61.9332 83.3082 61.6459C83.6889 61.5741 84.0746 61.5224 84.4571 61.4606H84.4588ZM77.9472 64.6537C78.1544 65.3484 77.7084 65.5539 77.1723 65.6591C76.2471 65.8411 75.3203 66.0332 74.3868 66.1634C73.1275 66.3388 72.6248 66.8816 72.8353 68.099C73.3797 71.2471 73.9642 74.3868 74.5486 77.5281C74.679 78.2262 75.3052 78.6722 76.0049 78.587C76.6931 78.5051 77.3777 78.3949 78.0591 78.2697C82.4548 77.4614 86.8453 76.6297 91.2442 75.8414C92.9844 75.5291 93.2851 75.1884 92.9811 73.4716C92.4584 70.5156 91.9189 67.5646 91.3845 64.6103C91.2092 63.6417 90.5428 63.1974 89.5742 63.3829C88.5103 63.5849 87.4449 63.7703 86.3795 63.9673C85.9084 64.0542 85.4792 63.9573 85.4374 63.4296C85.3522 62.3423 84.6575 62.3741 83.8944 62.5077C82.2276 62.8 80.5659 63.124 78.8958 63.4029C78.1511 63.5264 77.7969 63.8821 77.9439 64.652L77.9472 64.6537Z" fill="black"/>
                <path d="M87.5918 20.6461C87.5852 21.907 86.705 22.7554 85.4241 22.737C84.1165 22.7169 83.1746 21.8034 83.1963 20.5743C83.218 19.3451 84.1431 18.4182 85.3556 18.4116C86.6799 18.4032 87.6001 19.3217 87.5935 20.6461H87.5918Z" fill="black"/>
                <path d="M93.3869 117.893C93.3869 117.643 93.3835 117.394 93.3869 117.143C93.4136 115.39 93.0095 115.422 95.2724 115.542C96.221 115.592 96.9958 116.031 97.3499 116.956C97.6555 117.753 97.5754 118.535 97.0125 119.231C96.403 119.984 94.4925 120.504 93.6424 120.091C93.5037 120.023 93.4069 119.744 93.3969 119.555C93.3652 119.002 93.3852 118.446 93.3852 117.89L93.3869 117.893ZM94.0014 117.801H94.0048C94.0048 118.052 93.9631 118.311 94.0148 118.548C94.0899 118.894 94.1384 119.42 94.3621 119.527C95.5062 120.076 96.9692 119.002 96.8957 117.735C96.8322 116.664 95.9704 115.984 94.7613 116.02C93.5222 116.055 94.1301 116.981 94.0048 117.553C93.9881 117.633 94.0031 117.718 94.0031 117.801H94.0014Z" fill="black"/>
                <path d="M77.1757 117.843C77.1524 119.246 76.1754 120.208 74.8009 120.181C73.3781 120.155 72.396 119.154 72.4144 117.755C72.4328 116.442 73.4983 115.435 74.856 115.447C76.2271 115.458 77.1974 116.462 77.1757 117.843ZM74.8827 119.644C75.9365 119.63 76.6129 118.852 76.5762 117.696C76.5444 116.726 75.7728 115.976 74.7942 115.968C73.8206 115.959 73.0674 116.763 73.0557 117.822C73.044 118.914 73.7904 119.657 74.8827 119.644Z" fill="black"/>
                <path d="M64.9475 115.452C66.3687 115.458 67.3675 116.452 67.3708 117.863C67.3741 119.198 66.3319 120.201 64.9576 120.186C63.6015 120.171 62.5661 119.149 62.5594 117.815C62.5526 116.497 63.6165 115.445 64.9475 115.452ZM65.0126 119.65C66.003 119.639 66.7779 118.84 66.7679 117.845C66.7561 116.788 65.9495 115.961 64.9525 115.986C63.9305 116.013 63.209 116.764 63.209 117.806C63.209 118.899 63.9555 119.662 65.0126 119.65Z" fill="black"/>
                <path d="M102.627 120.178C101.255 120.155 100.246 119.153 100.254 117.816C100.263 116.445 101.388 115.397 102.806 115.44C104.047 115.478 105.089 116.599 105.059 117.863C105.027 119.163 103.937 120.2 102.627 120.178ZM102.699 115.971C101.754 115.928 100.954 116.676 100.894 117.661C100.827 118.772 101.517 119.593 102.562 119.652C103.594 119.71 104.414 118.929 104.448 117.853C104.476 116.92 103.633 116.014 102.698 115.971H102.699Z" fill="black"/>
                <path d="M57.7513 120.079C57.7513 119.104 57.7513 118.129 57.7513 117.154C57.7513 116.793 57.7229 116.429 57.7747 116.075C57.7998 115.908 57.9818 115.762 58.0936 115.607C58.1939 115.744 58.3458 115.868 58.3876 116.021C58.5162 116.502 58.4494 117.177 58.75 117.427C59.049 117.676 59.7019 117.474 60.1946 117.524C60.744 117.579 60.9661 117.349 60.9561 116.823C60.9511 116.602 60.9244 116.369 60.9829 116.163C61.0396 115.963 61.1916 115.789 61.3035 115.604C61.4053 115.797 61.5891 115.99 61.5924 116.185C61.6158 117.262 61.6108 118.343 61.574 119.42C61.5657 119.647 61.3887 119.869 61.2884 120.094C61.1682 119.884 60.9578 119.679 60.9411 119.46C60.8292 118.02 60.8409 118.085 59.4063 118.039C58.4844 118.009 58.3057 118.384 58.3942 119.178C58.4293 119.483 58.2974 119.807 58.2423 120.121C58.0786 120.108 57.915 120.094 57.7513 120.081V120.079Z" fill="black"/>
                <path d="M41.9626 118.045C41.4283 118.045 40.8921 118.074 40.3594 118.039C39.673 117.992 39.6212 118.393 39.5862 118.929C39.5461 119.547 39.87 119.62 40.3477 119.623C41.0057 119.628 41.6637 119.664 42.3217 119.685C42.3217 119.817 42.32 119.947 42.3184 120.079C41.8557 120.099 41.3932 120.138 40.9306 120.138C39.1186 120.141 39.1086 120.138 39.02 118.371C38.9849 117.653 39.0317 116.93 38.9983 116.21C38.9732 115.645 39.2404 115.482 39.7515 115.492C40.5782 115.51 41.4065 115.497 42.2332 115.497C42.2365 115.647 42.2382 115.797 42.2415 115.948C41.6203 115.974 40.999 116.043 40.3794 116.016C39.718 115.988 39.5728 116.302 39.6112 116.881C39.6429 117.381 39.8634 117.556 40.351 117.543C40.8854 117.529 41.4215 117.584 41.9576 117.611C41.9576 117.756 41.961 117.902 41.9626 118.047V118.045Z" fill="black"/>
                <path d="M53.638 120.145C53.5761 119.906 53.4643 119.669 53.4609 119.43C53.4459 118.351 53.476 117.272 53.4575 116.193C53.4492 115.737 53.6196 115.497 54.0722 115.518C54.6751 115.547 55.2896 115.542 55.8758 115.667C56.5254 115.806 56.9229 116.243 56.9279 116.97C56.9329 117.713 56.5421 118.151 55.8942 118.414C55.8691 118.424 55.8424 118.434 55.8157 118.443C54.7753 118.807 54.1857 119.3 53.6363 120.145H53.638ZM54.0521 117.007C53.9853 117.63 54.0905 118.08 54.9138 118.022C55.7806 117.96 56.31 117.648 56.3284 117.053C56.3484 116.435 55.779 116.056 54.8921 116.011C54.1406 115.973 53.982 116.369 54.0521 117.008V117.007Z" fill="black"/>
                <path d="M37.6072 116.218C37.4252 116.193 37.2432 116.172 37.0611 116.143C36.7338 116.093 36.3864 115.944 36.0891 116.015C35.8152 116.078 35.4545 116.342 35.3977 116.581C35.3493 116.784 35.6232 117.177 35.8553 117.31C36.2544 117.539 36.7972 117.541 37.1613 117.801C37.5187 118.059 37.9479 118.525 37.9446 118.895C37.9412 119.274 37.5271 119.769 37.1597 120.001C36.4515 120.445 35.2424 120.081 34.6913 119.303C34.9418 119.341 35.1105 119.36 35.2742 119.395C35.6215 119.47 35.9639 119.595 36.3146 119.627C36.7755 119.669 37.3199 119.597 37.3099 119.036C37.3049 118.748 36.8957 118.396 36.5885 118.206C36.2211 117.979 35.7384 117.943 35.3527 117.736C34.4725 117.265 34.4591 116.292 35.2942 115.737C35.9906 115.275 36.9108 115.38 37.6089 116.22L37.6072 116.218Z" fill="black"/>
                <path d="M79.9982 119.293C80.2035 119.343 80.4056 119.411 80.6144 119.44C81.0736 119.503 81.5396 119.605 81.9955 119.573C82.201 119.558 82.5282 119.276 82.545 119.092C82.5668 118.852 82.3997 118.478 82.1976 118.358C81.8285 118.135 81.3108 118.144 80.9684 117.898C80.5576 117.604 80.0649 117.19 79.9697 116.749C79.8329 116.116 80.3939 115.697 80.9868 115.534C81.7015 115.336 82.3612 115.492 82.899 115.983C82.8807 116.07 82.8639 116.155 82.8456 116.242C82.58 116.192 82.3162 116.12 82.0472 116.096C81.6965 116.066 81.3192 115.996 80.9984 116.093C80.7998 116.153 80.5927 116.479 80.5643 116.708C80.5426 116.881 80.7513 117.177 80.9318 117.265C81.3241 117.457 81.765 117.554 82.1876 117.683C82.8406 117.882 83.2565 118.261 83.1963 119.001C83.1345 119.744 82.6334 120.051 81.9772 120.138C81.2157 120.24 80.4991 120.123 79.933 119.558C79.9547 119.47 79.9781 119.381 79.9998 119.293L79.9982 119.293Z" fill="black"/>
                <path d="M50.3062 118.067C49.8687 118.09 49.4261 118.167 48.9936 118.125C48.2337 118.05 47.903 118.321 47.9615 119.106C47.9849 119.43 47.8697 119.764 47.8162 120.093C47.726 120.096 47.6342 120.101 47.544 120.104C47.4906 119.871 47.3921 119.638 47.3887 119.405C47.3737 118.351 47.3938 117.295 47.3803 116.24C47.3737 115.732 47.524 115.467 48.0968 115.502C48.7598 115.542 49.4278 115.492 50.0908 115.51C50.2929 115.515 50.4917 115.62 50.692 115.68C50.6804 115.796 50.6704 115.911 50.6587 116.025C50.0507 116.025 49.4428 116.033 48.8349 116.023C48.3155 116.014 47.8981 116.061 47.9348 116.769C47.9665 117.389 48.1803 117.695 48.8416 117.639C49.3159 117.599 49.7969 117.631 50.2746 117.631C50.2846 117.776 50.2946 117.922 50.3047 118.067L50.3062 118.067Z" fill="black"/>
                <path d="M92.2245 115.614C92.1844 116.893 92.5619 118.224 91.8805 119.431C91.5048 120.099 90.7266 120.251 89.9615 120.138C89.2151 120.028 88.5822 119.654 88.4786 118.889C88.3333 117.806 88.3517 116.703 88.2999 115.609C88.4185 115.579 88.5388 115.549 88.6573 115.518C88.7509 115.764 88.9095 116.004 88.9261 116.255C88.9746 116.945 88.9279 117.643 88.9829 118.333C89.0548 119.226 89.469 119.605 90.2922 119.628C91.0806 119.652 91.5648 119.244 91.6484 118.374C91.7135 117.688 91.6633 116.99 91.6901 116.298C91.7001 116.053 91.7836 115.811 91.8337 115.567L92.2212 115.615L92.2245 115.614Z" fill="black"/>
                <path d="M69.8541 120.146C69.7673 119.889 69.6187 119.635 69.6069 119.375C69.5736 118.598 69.5686 117.82 69.6036 117.043C69.6354 116.329 69.4316 115.909 68.625 116.009C68.5015 116.025 68.3662 115.953 68.2242 115.919C68.5465 115.422 70.7994 115.305 71.8265 115.801C71.4958 115.918 71.2887 116.066 71.1017 116.045C70.3485 115.954 70.2115 116.349 70.2299 116.983C70.26 118.004 70.2383 119.024 70.2383 120.044C70.1096 120.078 69.9811 120.113 69.8525 120.146H69.8541Z" fill="black"/>
                <path d="M85.4924 120.086C85.4541 119.806 85.3956 119.525 85.379 119.243C85.3606 118.91 85.379 118.578 85.3773 118.244C85.3723 117.661 85.5343 116.991 85.2971 116.525C85.1068 116.153 84.427 116.031 83.9761 115.802C84.3018 115.403 86.7935 115.333 87.4631 115.796C87.3011 115.878 87.1642 116.013 87.0457 115.998C86.072 115.873 85.9485 116.447 85.9818 117.212C86.0118 117.905 86.007 118.6 85.9818 119.291C85.9718 119.562 85.87 119.831 85.8098 120.099C85.7029 120.094 85.5961 120.089 85.4891 120.084L85.4924 120.086Z" fill="black"/>
                <path d="M43.3789 120.161C43.3789 118.672 43.3722 117.322 43.3906 115.973C43.3906 115.853 43.5559 115.736 43.6444 115.615C43.7513 115.779 43.9417 115.938 43.9484 116.105C43.9851 116.99 43.9935 117.877 43.9734 118.762C43.9601 119.391 44.1805 119.685 44.8485 119.624C45.3696 119.577 45.899 119.614 46.4268 119.787C45.4932 120.332 44.5012 120.026 43.3772 120.161H43.3789Z" fill="black"/>
                <path d="M98.5424 120.019C98.5424 118.69 98.5339 117.362 98.5556 116.033C98.5573 115.894 98.7393 115.759 98.8378 115.622C98.9548 115.751 99.1719 115.879 99.1752 116.01C99.1953 117.23 99.192 118.453 99.1552 119.675C99.1502 119.839 98.923 119.996 98.7995 120.155C98.7143 120.11 98.6292 120.064 98.5424 120.019Z" fill="black"/>
                <path d="M95.2557 56.7844C94.344 58.1021 93.4337 59.4197 92.522 60.7374C92.4116 60.6623 92.3031 60.5854 92.1929 60.5103C93.098 59.1893 94.0033 57.8666 94.9084 56.5456C95.0237 56.6258 95.1405 56.7059 95.2557 56.7844Z" fill="black"/>
                <path d="M89.985 59.49C90.0719 58.528 90.1603 57.5644 90.2472 56.6024C90.2622 56.6075 90.2755 56.6108 90.2906 56.6158V59.5167C90.1888 59.5083 90.0868 59.4983 89.985 59.49Z" fill="black"/>
                <path d="M96.7988 60.993C96.0941 61.3487 95.3893 61.7028 94.6846 62.0585L94.5776 61.843C95.2842 61.4907 95.9905 61.1383 96.697 60.7875C96.7303 60.856 96.7655 60.9245 96.7988 60.993Z" fill="black"/>
                <path d="M82.9674 75.7613C80.252 75.8648 78.2362 73.5785 78.1227 70.9765C78.0157 68.5065 80.2852 66.2252 82.7938 66.1785C85.4908 66.1267 87.7287 68.2711 87.7605 70.9348C87.7906 73.5601 85.6595 75.7061 82.9691 75.7613H82.9674ZM86.797 71.0066C86.8153 68.8522 85.1435 67.1605 82.9758 67.1404C80.7748 67.1204 79.0696 68.8522 79.0663 71.1152C79.0628 73.1226 80.8298 74.8193 82.9591 74.8594C85.075 74.8978 86.7785 73.1877 86.797 71.0066Z" fill="black"/>
                <path d="M89.4072 64.8508C89.6243 65.2048 90.0334 65.5756 90.0034 65.9062C89.975 66.2119 89.4255 66.7363 89.1951 66.6929C88.8494 66.6277 88.3868 66.1752 88.3417 65.8378C88.3016 65.5405 88.7659 65.1748 89.0063 64.8391C89.14 64.8425 89.2736 64.8475 89.4072 64.8508Z" fill="black"/>
                </svg>
            